<svg viewBox="0 0 1200 675" fill="none" xmlns="http://www.w3.org/2000/svg">
    <rect width="1200" height="675" fill="#F8FAFC" />
    <g opacity="0.25">
        <path
            d="M271.574 246.955H281.468V277.344C281.468 280.756 280.653 283.742 279.023 286.301C277.408 288.86 275.146 290.856 272.237 292.288C269.327 293.704 265.938 294.413 262.069 294.413C258.185 294.413 254.788 293.704 251.878 292.288C248.969 290.856 246.707 288.86 245.092 286.301C243.477 283.742 242.67 280.756 242.67 277.344V246.955H252.564V276.499C252.564 278.281 252.952 279.865 253.729 281.251C254.521 282.638 255.633 283.727 257.065 284.519C258.497 285.311 260.165 285.707 262.069 285.707C263.988 285.707 265.656 285.311 267.073 284.519C268.505 283.727 269.609 282.638 270.386 281.251C271.178 279.865 271.574 278.281 271.574 276.499V246.955ZM289.425 306.911V258.654H299.022V264.549H299.456C299.883 263.604 300.499 262.645 301.307 261.67C302.129 260.68 303.196 259.857 304.506 259.202C305.831 258.532 307.476 258.197 309.441 258.197C312 258.197 314.361 258.867 316.524 260.207C318.687 261.533 320.416 263.536 321.711 266.217C323.006 268.882 323.653 272.226 323.653 276.248C323.653 280.162 323.021 283.468 321.757 286.164C320.508 288.845 318.802 290.879 316.639 292.265C314.491 293.636 312.084 294.321 309.418 294.321C307.529 294.321 305.922 294.009 304.597 293.384C303.287 292.76 302.213 291.975 301.375 291.031C300.538 290.071 299.898 289.104 299.456 288.129H299.159V306.911H289.425ZM298.953 276.202C298.953 278.289 299.243 280.109 299.822 281.663C300.4 283.217 301.238 284.428 302.335 285.296C303.432 286.149 304.765 286.575 306.334 286.575C307.918 286.575 309.258 286.141 310.355 285.273C311.452 284.389 312.282 283.171 312.846 281.617C313.424 280.048 313.714 278.243 313.714 276.202C313.714 274.176 313.432 272.394 312.868 270.855C312.305 269.317 311.475 268.113 310.378 267.245C309.281 266.377 307.933 265.943 306.334 265.943C304.749 265.943 303.409 266.361 302.312 267.199C301.231 268.037 300.4 269.225 299.822 270.764C299.243 272.302 298.953 274.115 298.953 276.202ZM339.876 246.955V293.75H330.142V246.955H339.876ZM363.531 294.435C359.982 294.435 356.912 293.681 354.323 292.173C351.748 290.65 349.76 288.533 348.359 285.821C346.958 283.095 346.257 279.934 346.257 276.339C346.257 272.714 346.958 269.545 348.359 266.834C349.76 264.107 351.748 261.99 354.323 260.482C356.912 258.958 359.982 258.197 363.531 258.197C367.08 258.197 370.142 258.958 372.716 260.482C375.306 261.99 377.301 264.107 378.703 266.834C380.104 269.545 380.805 272.714 380.805 276.339C380.805 279.934 380.104 283.095 378.703 285.821C377.301 288.533 375.306 290.65 372.716 292.173C370.142 293.681 367.08 294.435 363.531 294.435ZM363.577 286.895C365.191 286.895 366.539 286.438 367.621 285.524C368.702 284.595 369.517 283.331 370.066 281.731C370.629 280.132 370.911 278.312 370.911 276.27C370.911 274.229 370.629 272.409 370.066 270.809C369.517 269.21 368.702 267.946 367.621 267.016C366.539 266.087 365.191 265.623 363.577 265.623C361.947 265.623 360.576 266.087 359.464 267.016C358.367 267.946 357.537 269.21 356.973 270.809C356.425 272.409 356.151 274.229 356.151 276.27C356.151 278.312 356.425 280.132 356.973 281.731C357.537 283.331 358.367 284.595 359.464 285.524C360.576 286.438 361.947 286.895 363.577 286.895ZM397.142 294.413C394.903 294.413 392.907 294.024 391.156 293.247C389.404 292.455 388.018 291.29 386.997 289.751C385.992 288.198 385.489 286.263 385.489 283.948C385.489 281.998 385.847 280.36 386.563 279.035C387.279 277.71 388.254 276.644 389.488 275.836C390.721 275.029 392.123 274.42 393.692 274.008C395.276 273.597 396.936 273.308 398.673 273.14C400.714 272.927 402.359 272.729 403.608 272.546C404.857 272.348 405.764 272.059 406.327 271.678C406.891 271.297 407.173 270.733 407.173 269.987V269.85C407.173 268.403 406.716 267.283 405.802 266.491C404.903 265.699 403.624 265.303 401.963 265.303C400.211 265.303 398.818 265.691 397.782 266.468C396.746 267.23 396.06 268.189 395.725 269.347L386.723 268.616C387.18 266.483 388.078 264.64 389.419 263.086C390.759 261.517 392.488 260.314 394.606 259.476C396.738 258.623 399.206 258.197 402.009 258.197C403.959 258.197 405.825 258.425 407.607 258.882C409.404 259.339 410.996 260.047 412.382 261.007C413.784 261.967 414.888 263.201 415.696 264.709C416.503 266.201 416.907 267.991 416.907 270.078V293.75H407.675V288.883H407.401C406.838 289.98 406.084 290.947 405.139 291.785C404.195 292.608 403.06 293.255 401.735 293.727C400.409 294.184 398.879 294.413 397.142 294.413ZM399.93 287.695C401.361 287.695 402.626 287.413 403.723 286.85C404.819 286.271 405.68 285.494 406.305 284.519C406.929 283.544 407.241 282.44 407.241 281.206V277.481C406.937 277.679 406.518 277.862 405.985 278.03C405.467 278.182 404.88 278.327 404.225 278.464C403.57 278.586 402.915 278.7 402.26 278.807C401.605 278.898 401.011 278.982 400.478 279.058C399.336 279.226 398.338 279.492 397.485 279.858C396.632 280.223 395.969 280.718 395.497 281.343C395.025 281.952 394.789 282.714 394.789 283.628C394.789 284.953 395.268 285.966 396.228 286.667C397.203 287.352 398.437 287.695 399.93 287.695ZM437.391 294.321C434.725 294.321 432.311 293.636 430.148 292.265C428 290.879 426.294 288.845 425.029 286.164C423.78 283.468 423.156 280.162 423.156 276.248C423.156 272.226 423.803 268.882 425.098 266.217C426.393 263.536 428.114 261.533 430.262 260.207C432.425 258.867 434.794 258.197 437.368 258.197C439.333 258.197 440.971 258.532 442.281 259.202C443.606 259.857 444.672 260.68 445.479 261.67C446.302 262.645 446.927 263.604 447.353 264.549H447.65V246.955H457.361V293.75H447.764V288.129H447.353C446.896 289.104 446.249 290.071 445.411 291.031C444.588 291.975 443.514 292.76 442.189 293.384C440.879 294.009 439.28 294.321 437.391 294.321ZM440.475 286.575C442.044 286.575 443.37 286.149 444.451 285.296C445.548 284.428 446.386 283.217 446.965 281.663C447.559 280.109 447.856 278.289 447.856 276.202C447.856 274.115 447.566 272.302 446.988 270.764C446.409 269.225 445.571 268.037 444.474 267.199C443.377 266.361 442.044 265.943 440.475 265.943C438.876 265.943 437.528 266.377 436.431 267.245C435.334 268.113 434.504 269.317 433.941 270.855C433.377 272.394 433.095 274.176 433.095 276.202C433.095 278.243 433.377 280.048 433.941 281.617C434.519 283.171 435.35 284.389 436.431 285.273C437.528 286.141 438.876 286.575 440.475 286.575ZM490.264 294.413C488.025 294.413 486.029 294.024 484.277 293.247C482.526 292.455 481.139 291.29 480.119 289.751C479.113 288.198 478.611 286.263 478.611 283.948C478.611 281.998 478.969 280.36 479.685 279.035C480.401 277.71 481.376 276.644 482.609 275.836C483.843 275.029 485.245 274.42 486.814 274.008C488.398 273.597 490.058 273.308 491.795 273.14C493.836 272.927 495.481 272.729 496.73 272.546C497.979 272.348 498.886 272.059 499.449 271.678C500.013 271.297 500.295 270.733 500.295 269.987V269.85C500.295 268.403 499.838 267.283 498.924 266.491C498.025 265.699 496.745 265.303 495.085 265.303C493.333 265.303 491.939 265.691 490.904 266.468C489.868 267.23 489.182 268.189 488.847 269.347L479.845 268.616C480.302 266.483 481.2 264.64 482.541 263.086C483.881 261.517 485.61 260.314 487.728 259.476C489.86 258.623 492.328 258.197 495.131 258.197C497.081 258.197 498.947 258.425 500.729 258.882C502.526 259.339 504.118 260.047 505.504 261.007C506.906 261.967 508.01 263.201 508.817 264.709C509.625 266.201 510.028 267.991 510.028 270.078V293.75H500.797V288.883H500.523C499.96 289.98 499.206 290.947 498.261 291.785C497.317 292.608 496.182 293.255 494.857 293.727C493.531 294.184 492 294.413 490.264 294.413ZM493.051 287.695C494.483 287.695 495.748 287.413 496.844 286.85C497.941 286.271 498.802 285.494 499.426 284.519C500.051 283.544 500.363 282.44 500.363 281.206V277.481C500.059 277.679 499.64 277.862 499.107 278.03C498.589 278.182 498.002 278.327 497.347 278.464C496.692 278.586 496.037 278.7 495.382 278.807C494.727 278.898 494.133 278.982 493.6 279.058C492.457 279.226 491.46 279.492 490.607 279.858C489.754 280.223 489.091 280.718 488.619 281.343C488.147 281.952 487.91 282.714 487.91 283.628C487.91 284.953 488.39 285.966 489.35 286.667C490.325 287.352 491.559 287.695 493.051 287.695ZM532.655 293.75V246.955H551.391C554.834 246.955 557.705 247.465 560.005 248.486C562.305 249.506 564.034 250.923 565.192 252.736C566.35 254.533 566.929 256.605 566.929 258.951C566.929 260.779 566.563 262.386 565.832 263.772C565.101 265.143 564.095 266.27 562.816 267.154C561.551 268.022 560.104 268.639 558.474 269.004V269.461C560.257 269.537 561.925 270.04 563.478 270.969C565.047 271.899 566.319 273.201 567.294 274.877C568.269 276.537 568.757 278.517 568.757 280.817C568.757 283.3 568.14 285.517 566.906 287.466C565.687 289.401 563.882 290.932 561.491 292.059C559.099 293.186 556.151 293.75 552.648 293.75H532.655ZM542.549 285.661H550.614C553.371 285.661 555.382 285.136 556.647 284.085C557.911 283.018 558.543 281.602 558.543 279.835C558.543 278.54 558.231 277.398 557.606 276.407C556.982 275.417 556.091 274.64 554.933 274.077C553.79 273.513 552.427 273.231 550.843 273.231H542.549V285.661ZM542.549 266.537H549.883C551.239 266.537 552.442 266.301 553.493 265.828C554.56 265.341 555.397 264.655 556.007 263.772C556.631 262.888 556.944 261.83 556.944 260.596C556.944 258.905 556.342 257.542 555.138 256.506C553.95 255.47 552.259 254.952 550.066 254.952H542.549V266.537ZM585.02 294.413C582.78 294.413 580.785 294.024 579.033 293.247C577.281 292.455 575.895 291.29 574.874 289.751C573.869 288.198 573.366 286.263 573.366 283.948C573.366 281.998 573.724 280.36 574.44 279.035C575.156 277.71 576.131 276.644 577.365 275.836C578.599 275.029 580 274.42 581.569 274.008C583.153 273.597 584.814 273.308 586.55 273.14C588.592 272.927 590.237 272.729 591.486 272.546C592.735 272.348 593.641 272.059 594.205 271.678C594.768 271.297 595.05 270.733 595.05 269.987V269.85C595.05 268.403 594.593 267.283 593.679 266.491C592.781 265.699 591.501 265.303 589.841 265.303C588.089 265.303 586.695 265.691 585.659 266.468C584.623 267.23 583.938 268.189 583.603 269.347L574.6 268.616C575.057 266.483 575.956 264.64 577.296 263.086C578.637 261.517 580.366 260.314 582.483 259.476C584.616 258.623 587.084 258.197 589.886 258.197C591.836 258.197 593.702 258.425 595.484 258.882C597.282 259.339 598.874 260.047 600.26 261.007C601.661 261.967 602.766 263.201 603.573 264.709C604.38 266.201 604.784 267.991 604.784 270.078V293.75H595.553V288.883H595.279C594.715 289.98 593.961 290.947 593.017 291.785C592.072 292.608 590.937 293.255 589.612 293.727C588.287 294.184 586.756 294.413 585.02 294.413ZM587.807 287.695C589.239 287.695 590.503 287.413 591.6 286.85C592.697 286.271 593.557 285.494 594.182 284.519C594.807 283.544 595.119 282.44 595.119 281.206V277.481C594.814 277.679 594.395 277.862 593.862 278.03C593.344 278.182 592.758 278.327 592.103 278.464C591.448 278.586 590.793 278.7 590.138 278.807C589.483 278.898 588.889 278.982 588.355 279.058C587.213 279.226 586.215 279.492 585.362 279.858C584.509 280.223 583.847 280.718 583.374 281.343C582.902 281.952 582.666 282.714 582.666 283.628C582.666 284.953 583.146 285.966 584.106 286.667C585.08 287.352 586.314 287.695 587.807 287.695ZM622.069 273.46V293.75H612.336V258.654H621.612V264.846H622.024C622.801 262.805 624.103 261.19 625.931 260.002C627.759 258.798 629.975 258.197 632.58 258.197C635.017 258.197 637.142 258.73 638.955 259.796C640.768 260.862 642.177 262.386 643.182 264.366C644.187 266.331 644.69 268.677 644.69 271.403V293.75H634.956V273.14C634.972 270.992 634.423 269.317 633.311 268.113C632.199 266.895 630.668 266.285 628.719 266.285C627.409 266.285 626.251 266.567 625.245 267.131C624.255 267.694 623.478 268.517 622.915 269.598C622.366 270.665 622.085 271.952 622.069 273.46ZM662.096 273.46V293.75H652.362V258.654H661.639V264.846H662.05C662.827 262.805 664.129 261.19 665.957 260.002C667.785 258.798 670.001 258.197 672.606 258.197C675.043 258.197 677.168 258.73 678.981 259.796C680.794 260.862 682.203 262.386 683.208 264.366C684.214 266.331 684.716 268.677 684.716 271.403V293.75H674.982V273.14C674.998 270.992 674.449 269.317 673.337 268.113C672.225 266.895 670.694 266.285 668.745 266.285C667.435 266.285 666.277 266.567 665.272 267.131C664.281 267.694 663.505 268.517 662.941 269.598C662.393 270.665 662.111 271.952 662.096 273.46ZM708.382 294.435C704.772 294.435 701.665 293.704 699.06 292.242C696.47 290.764 694.475 288.677 693.073 285.981C691.672 283.27 690.971 280.063 690.971 276.362C690.971 272.752 691.672 269.583 693.073 266.857C694.475 264.13 696.447 262.005 698.991 260.482C701.55 258.958 704.551 258.197 707.994 258.197C710.309 258.197 712.465 258.57 714.46 259.316C716.471 260.047 718.223 261.152 719.715 262.629C721.224 264.107 722.396 265.965 723.234 268.205C724.072 270.429 724.491 273.033 724.491 276.019V278.692H694.856V272.66H715.328C715.328 271.259 715.024 270.017 714.414 268.936C713.805 267.854 712.96 267.009 711.878 266.4C710.812 265.775 709.57 265.463 708.154 265.463C706.676 265.463 705.366 265.805 704.224 266.491C703.096 267.161 702.213 268.068 701.573 269.21C700.933 270.337 700.606 271.594 700.591 272.98V278.715C700.591 280.452 700.911 281.952 701.55 283.217C702.205 284.481 703.127 285.456 704.315 286.141C705.503 286.827 706.912 287.169 708.542 287.169C709.624 287.169 710.614 287.017 711.513 286.712C712.411 286.408 713.181 285.951 713.82 285.341C714.46 284.732 714.948 283.986 715.283 283.102L724.285 283.696C723.828 285.859 722.892 287.748 721.475 289.363C720.073 290.962 718.261 292.211 716.037 293.11C713.828 293.994 711.277 294.435 708.382 294.435ZM730.843 293.75V258.654H740.28V264.777H740.645C741.285 262.599 742.359 260.954 743.867 259.842C745.375 258.715 747.112 258.151 749.077 258.151C749.564 258.151 750.09 258.181 750.653 258.242C751.217 258.303 751.712 258.387 752.138 258.494V267.131C751.682 266.994 751.049 266.872 750.242 266.765C749.435 266.658 748.696 266.605 748.026 266.605C746.594 266.605 745.314 266.917 744.187 267.542C743.075 268.151 742.191 269.004 741.536 270.101C740.897 271.198 740.577 272.462 740.577 273.894V293.75H730.843ZM782.139 246.955V293.75H772.246V246.955H782.139ZM790.097 293.75V258.654H799.373V264.846H799.785C800.516 262.789 801.735 261.167 803.441 259.979C805.147 258.791 807.188 258.197 809.564 258.197C811.971 258.197 814.02 258.798 815.711 260.002C817.401 261.19 818.529 262.805 819.092 264.846H819.458C820.174 262.835 821.469 261.228 823.342 260.025C825.231 258.806 827.463 258.197 830.037 258.197C833.312 258.197 835.97 259.24 838.011 261.327C840.068 263.399 841.096 266.339 841.096 270.147V293.75H831.385V272.066C831.385 270.116 830.867 268.654 829.831 267.679C828.796 266.704 827.501 266.217 825.947 266.217C824.18 266.217 822.802 266.78 821.811 267.908C820.821 269.02 820.326 270.49 820.326 272.317V293.75H810.889V271.86C810.889 270.139 810.394 268.768 809.404 267.748C808.429 266.727 807.142 266.217 805.543 266.217C804.461 266.217 803.486 266.491 802.618 267.039C801.765 267.572 801.087 268.326 800.584 269.301C800.082 270.261 799.83 271.388 799.83 272.683V293.75H790.097ZM858.793 294.413C856.554 294.413 854.558 294.024 852.806 293.247C851.055 292.455 849.668 291.29 848.648 289.751C847.642 288.198 847.14 286.263 847.14 283.948C847.14 281.998 847.498 280.36 848.214 279.035C848.93 277.71 849.904 276.644 851.138 275.836C852.372 275.029 853.774 274.42 855.343 274.008C856.927 273.597 858.587 273.308 860.324 273.14C862.365 272.927 864.01 272.729 865.259 272.546C866.508 272.348 867.415 272.059 867.978 271.678C868.542 271.297 868.824 270.733 868.824 269.987V269.85C868.824 268.403 868.367 267.283 867.453 266.491C866.554 265.699 865.274 265.303 863.614 265.303C861.862 265.303 860.468 265.691 859.433 266.468C858.397 267.23 857.711 268.189 857.376 269.347L848.374 268.616C848.831 266.483 849.729 264.64 851.07 263.086C852.41 261.517 854.139 260.314 856.257 259.476C858.389 258.623 860.857 258.197 863.66 258.197C865.609 258.197 867.475 258.425 869.258 258.882C871.055 259.339 872.647 260.047 874.033 261.007C875.435 261.967 876.539 263.201 877.346 264.709C878.154 266.201 878.557 267.991 878.557 270.078V293.75H869.326V288.883H869.052C868.488 289.98 867.734 290.947 866.79 291.785C865.846 292.608 864.711 293.255 863.385 293.727C862.06 294.184 860.529 294.413 858.793 294.413ZM861.58 287.695C863.012 287.695 864.277 287.413 865.373 286.85C866.47 286.271 867.331 285.494 867.955 284.519C868.58 283.544 868.892 282.44 868.892 281.206V277.481C868.587 277.679 868.169 277.862 867.635 278.03C867.117 278.182 866.531 278.327 865.876 278.464C865.221 278.586 864.566 278.7 863.911 278.807C863.256 278.898 862.662 278.982 862.129 279.058C860.986 279.226 859.989 279.492 859.135 279.858C858.282 280.223 857.62 280.718 857.148 281.343C856.675 281.952 856.439 282.714 856.439 283.628C856.439 284.953 856.919 285.966 857.879 286.667C858.854 287.352 860.088 287.695 861.58 287.695ZM901.921 307.642C898.767 307.642 896.064 307.208 893.809 306.34C891.57 305.487 889.788 304.322 888.462 302.844C887.137 301.366 886.277 299.706 885.88 297.863L894.883 296.652C895.157 297.353 895.591 298.008 896.185 298.617C896.78 299.226 897.564 299.714 898.539 300.079C899.529 300.46 900.732 300.65 902.149 300.65C904.266 300.65 906.011 300.133 907.382 299.097C908.768 298.076 909.461 296.362 909.461 293.956V287.535H909.05C908.623 288.51 907.983 289.432 907.13 290.3C906.277 291.168 905.18 291.876 903.84 292.425C902.499 292.973 900.9 293.247 899.042 293.247C896.406 293.247 894.007 292.638 891.844 291.419C889.696 290.186 887.983 288.304 886.703 285.776C885.439 283.232 884.807 280.018 884.807 276.133C884.807 272.158 885.454 268.837 886.749 266.171C888.044 263.505 889.765 261.51 891.913 260.185C894.076 258.859 896.444 258.197 899.019 258.197C900.984 258.197 902.629 258.532 903.954 259.202C905.279 259.857 906.346 260.68 907.153 261.67C907.976 262.645 908.608 263.604 909.05 264.549H909.415V258.654H919.08V294.093C919.08 297.078 918.349 299.577 916.887 301.587C915.424 303.598 913.399 305.106 910.809 306.111C908.235 307.132 905.272 307.642 901.921 307.642ZM902.126 285.936C903.695 285.936 905.02 285.547 906.102 284.77C907.199 283.978 908.037 282.851 908.615 281.389C909.21 279.911 909.507 278.144 909.507 276.088C909.507 274.031 909.217 272.249 908.638 270.741C908.059 269.218 907.222 268.037 906.125 267.199C905.028 266.361 903.695 265.943 902.126 265.943C900.527 265.943 899.179 266.377 898.082 267.245C896.985 268.098 896.155 269.286 895.591 270.809C895.028 272.333 894.746 274.092 894.746 276.088C894.746 278.114 895.028 279.865 895.591 281.343C896.17 282.805 897 283.94 898.082 284.747C899.179 285.54 900.527 285.936 902.126 285.936ZM942.821 294.435C939.211 294.435 936.103 293.704 933.498 292.242C930.909 290.764 928.913 288.677 927.512 285.981C926.11 283.27 925.41 280.063 925.41 276.362C925.41 272.752 926.11 269.583 927.512 266.857C928.913 264.13 930.886 262.005 933.43 260.482C935.989 258.958 938.99 258.197 942.432 258.197C944.748 258.197 946.903 258.57 948.899 259.316C950.909 260.047 952.661 261.152 954.154 262.629C955.662 264.107 956.835 265.965 957.673 268.205C958.51 270.429 958.929 273.033 958.929 276.019V278.692H929.294V272.66H949.767C949.767 271.259 949.462 270.017 948.853 268.936C948.244 267.854 947.398 267.009 946.317 266.4C945.25 265.775 944.009 265.463 942.592 265.463C941.115 265.463 939.805 265.805 938.662 266.491C937.535 267.161 936.651 268.068 936.012 269.21C935.372 270.337 935.044 271.594 935.029 272.98V278.715C935.029 280.452 935.349 281.952 935.989 283.217C936.644 284.481 937.565 285.456 938.754 286.141C939.942 286.827 941.351 287.169 942.981 287.169C944.062 287.169 945.052 287.017 945.951 286.712C946.85 286.408 947.619 285.951 948.259 285.341C948.899 284.732 949.386 283.986 949.721 283.102L958.724 283.696C958.267 285.859 957.33 287.748 955.913 289.363C954.512 290.962 952.699 292.211 950.475 293.11C948.266 293.994 945.715 294.435 942.821 294.435Z"
            fill="black" />
        <path
            d="M345.037 381.955V428.75H335.144V391.346H334.869L324.153 398.064V389.289L335.738 381.955H345.037ZM374.119 429.39C371.712 429.375 369.389 428.971 367.15 428.179C364.926 427.387 362.93 426.099 361.163 424.317C359.396 422.535 357.995 420.174 356.959 417.234C355.938 414.294 355.428 410.684 355.428 406.403C355.443 402.473 355.893 398.962 356.776 395.87C357.675 392.763 358.954 390.127 360.615 387.964C362.29 385.801 364.293 384.156 366.624 383.029C368.955 381.886 371.567 381.315 374.461 381.315C377.584 381.315 380.341 381.924 382.733 383.143C385.124 384.346 387.044 385.984 388.491 388.056C389.953 390.127 390.837 392.45 391.141 395.025H381.385C381.004 393.395 380.204 392.115 378.985 391.186C377.767 390.257 376.259 389.792 374.461 389.792C371.415 389.792 369.099 391.117 367.515 393.768C365.946 396.418 365.146 400.021 365.116 404.576H365.436C366.137 403.189 367.081 402.009 368.269 401.034C369.473 400.044 370.836 399.29 372.359 398.772C373.898 398.239 375.52 397.972 377.226 397.972C379.998 397.972 382.466 398.627 384.629 399.937C386.792 401.232 388.498 403.014 389.747 405.284C390.997 407.554 391.621 410.151 391.621 413.075C391.621 416.244 390.882 419.062 389.405 421.53C387.942 423.997 385.894 425.932 383.258 427.333C380.638 428.72 377.592 429.405 374.119 429.39ZM374.073 421.621C375.596 421.621 376.96 421.255 378.163 420.524C379.366 419.793 380.311 418.803 380.996 417.554C381.682 416.305 382.024 414.903 382.024 413.35C382.024 411.796 381.682 410.402 380.996 409.168C380.326 407.934 379.397 406.952 378.209 406.221C377.02 405.49 375.665 405.124 374.141 405.124C372.999 405.124 371.94 405.337 370.965 405.764C370.006 406.19 369.16 406.784 368.429 407.546C367.713 408.308 367.15 409.191 366.738 410.196C366.327 411.187 366.121 412.245 366.121 413.372C366.121 414.881 366.464 416.259 367.15 417.508C367.85 418.757 368.795 419.755 369.983 420.501C371.186 421.248 372.55 421.621 374.073 421.621ZM419.109 379.761L404.028 435.788H395.643L410.723 379.761H419.109ZM440.638 381.315C443.045 381.315 445.361 381.719 447.584 382.526C449.824 383.333 451.819 384.621 453.571 386.388C455.338 388.155 456.732 390.5 457.752 393.425C458.788 396.335 459.314 399.907 459.329 404.141C459.329 408.117 458.88 411.666 457.981 414.789C457.097 417.897 455.825 420.54 454.165 422.718C452.505 424.896 450.502 426.556 448.156 427.699C445.81 428.826 443.19 429.39 440.296 429.39C437.173 429.39 434.416 428.788 432.024 427.585C429.633 426.366 427.706 424.713 426.243 422.626C424.796 420.524 423.92 418.163 423.616 415.543H433.372C433.753 417.249 434.553 418.574 435.771 419.519C436.99 420.448 438.498 420.913 440.296 420.913C443.342 420.913 445.658 419.587 447.242 416.937C448.826 414.271 449.626 410.623 449.641 405.992H449.321C448.62 407.363 447.676 408.544 446.488 409.534C445.3 410.509 443.936 411.263 442.398 411.796C440.874 412.329 439.252 412.596 437.531 412.596C434.774 412.596 432.314 411.948 430.151 410.653C427.988 409.359 426.281 407.576 425.032 405.307C423.783 403.037 423.159 400.447 423.159 397.538C423.143 394.4 423.867 391.605 425.329 389.152C426.792 386.7 428.833 384.781 431.453 383.394C434.088 381.993 437.15 381.3 440.638 381.315ZM440.707 389.084C439.168 389.084 437.797 389.449 436.594 390.181C435.406 390.912 434.461 391.894 433.761 393.128C433.075 394.362 432.74 395.741 432.755 397.264C432.755 398.802 433.09 400.189 433.761 401.422C434.446 402.641 435.375 403.616 436.548 404.347C437.736 405.063 439.092 405.421 440.615 405.421C441.758 405.421 442.817 405.208 443.792 404.781C444.766 404.355 445.612 403.768 446.328 403.022C447.059 402.26 447.63 401.384 448.041 400.394C448.453 399.404 448.658 398.353 448.658 397.241C448.643 395.763 448.293 394.408 447.607 393.174C446.922 391.94 445.977 390.95 444.774 390.203C443.571 389.457 442.215 389.084 440.707 389.084ZM489.416 428.75H478.814L494.968 381.955H507.718L523.849 428.75H513.247L501.526 392.648H501.16L489.416 428.75ZM488.753 410.356H513.796V418.079H488.753V410.356ZM557.683 403.662L548.772 404.21C548.62 403.448 548.292 402.763 547.79 402.154C547.287 401.529 546.624 401.034 545.802 400.668C544.994 400.288 544.027 400.097 542.9 400.097C541.392 400.097 540.12 400.417 539.084 401.057C538.048 401.681 537.53 402.519 537.53 403.57C537.53 404.408 537.865 405.116 538.536 405.695C539.206 406.274 540.356 406.739 541.986 407.089L548.338 408.369C551.75 409.069 554.294 410.196 555.97 411.75C557.645 413.304 558.483 415.345 558.483 417.874C558.483 420.174 557.805 422.192 556.449 423.929C555.109 425.665 553.266 427.021 550.92 427.996C548.589 428.956 545.901 429.435 542.854 429.435C538.208 429.435 534.507 428.468 531.749 426.534C529.008 424.584 527.4 421.933 526.928 418.582L536.502 418.079C536.792 419.496 537.492 420.578 538.604 421.324C539.716 422.055 541.14 422.421 542.877 422.421C544.583 422.421 545.954 422.093 546.99 421.438C548.041 420.768 548.574 419.907 548.589 418.856C548.574 417.973 548.201 417.249 547.47 416.686C546.739 416.107 545.611 415.665 544.088 415.36L538.01 414.149C534.583 413.464 532.031 412.276 530.356 410.585C528.695 408.894 527.865 406.739 527.865 404.119C527.865 401.864 528.474 399.922 529.693 398.292C530.927 396.662 532.656 395.405 534.88 394.522C537.119 393.638 539.739 393.197 542.74 393.197C547.173 393.197 550.661 394.133 553.205 396.007C555.764 397.881 557.257 400.432 557.683 403.662ZM564.612 441.911V393.654H574.209V399.549H574.643C575.07 398.604 575.687 397.645 576.494 396.67C577.316 395.68 578.383 394.857 579.693 394.202C581.018 393.532 582.663 393.197 584.628 393.197C587.187 393.197 589.548 393.867 591.711 395.207C593.875 396.533 595.603 398.536 596.898 401.217C598.193 403.882 598.84 407.226 598.84 411.248C598.84 415.162 598.208 418.468 596.944 421.164C595.695 423.845 593.989 425.879 591.826 427.265C589.678 428.636 587.271 429.321 584.605 429.321C582.717 429.321 581.109 429.009 579.784 428.384C578.474 427.76 577.4 426.975 576.562 426.031C575.725 425.071 575.085 424.104 574.643 423.129H574.346V441.911H564.612ZM574.14 411.202C574.14 413.289 574.43 415.109 575.009 416.663C575.588 418.217 576.425 419.428 577.522 420.296C578.619 421.149 579.952 421.575 581.521 421.575C583.105 421.575 584.445 421.141 585.542 420.273C586.639 419.389 587.469 418.171 588.033 416.617C588.612 415.048 588.901 413.243 588.901 411.202C588.901 409.176 588.619 407.394 588.056 405.855C587.492 404.317 586.662 403.113 585.565 402.245C584.468 401.377 583.12 400.943 581.521 400.943C579.937 400.943 578.596 401.361 577.499 402.199C576.418 403.037 575.588 404.225 575.009 405.764C574.43 407.302 574.14 409.115 574.14 411.202ZM621.324 429.435C617.714 429.435 614.606 428.704 612.002 427.242C609.412 425.764 607.416 423.677 606.015 420.981C604.614 418.27 603.913 415.063 603.913 411.362C603.913 407.752 604.614 404.583 606.015 401.857C607.416 399.13 609.389 397.005 611.933 395.482C614.492 393.958 617.493 393.197 620.936 393.197C623.251 393.197 625.406 393.57 627.402 394.316C629.413 395.047 631.164 396.152 632.657 397.629C634.165 399.107 635.338 400.965 636.176 403.205C637.014 405.429 637.433 408.033 637.433 411.019V413.692H607.797V407.66H628.27C628.27 406.259 627.965 405.017 627.356 403.936C626.747 402.854 625.901 402.009 624.82 401.4C623.754 400.775 622.512 400.463 621.095 400.463C619.618 400.463 618.308 400.805 617.165 401.491C616.038 402.161 615.155 403.068 614.515 404.21C613.875 405.337 613.548 406.594 613.532 407.98V413.715C613.532 415.452 613.852 416.952 614.492 418.217C615.147 419.481 616.069 420.456 617.257 421.141C618.445 421.827 619.854 422.169 621.484 422.169C622.565 422.169 623.556 422.017 624.454 421.712C625.353 421.408 626.122 420.951 626.762 420.341C627.402 419.732 627.889 418.986 628.224 418.102L637.227 418.696C636.77 420.859 635.833 422.748 634.417 424.363C633.015 425.962 631.202 427.211 628.978 428.11C626.77 428.994 624.218 429.435 621.324 429.435ZM659.642 429.435C656.047 429.435 652.955 428.674 650.365 427.151C647.791 425.612 645.811 423.479 644.425 420.753C643.054 418.026 642.368 414.888 642.368 411.339C642.368 407.744 643.061 404.591 644.447 401.879C645.849 399.153 647.837 397.028 650.411 395.504C652.985 393.966 656.047 393.197 659.596 393.197C662.658 393.197 665.339 393.753 667.639 394.865C669.939 395.977 671.76 397.538 673.1 399.549C674.441 401.559 675.18 403.921 675.317 406.632H666.131C665.872 404.88 665.187 403.471 664.075 402.405C662.978 401.323 661.539 400.783 659.756 400.783C658.248 400.783 656.931 401.194 655.803 402.016C654.691 402.824 653.823 404.004 653.199 405.558C652.574 407.112 652.262 408.993 652.262 411.202C652.262 413.441 652.566 415.345 653.176 416.914C653.8 418.483 654.676 419.679 655.803 420.501C656.931 421.324 658.248 421.735 659.756 421.735C660.868 421.735 661.866 421.507 662.75 421.05C663.648 420.593 664.387 419.93 664.966 419.062C665.56 418.178 665.948 417.12 666.131 415.886H675.317C675.164 418.567 674.433 420.928 673.123 422.969C671.828 424.995 670.038 426.579 667.754 427.722C665.469 428.864 662.765 429.435 659.642 429.435ZM700.217 393.654V400.965H679.081V393.654H700.217ZM683.879 385.245H693.613V417.965C693.613 418.864 693.75 419.565 694.024 420.067C694.299 420.555 694.679 420.897 695.167 421.096C695.67 421.294 696.248 421.393 696.903 421.393C697.36 421.393 697.817 421.354 698.274 421.278C698.731 421.187 699.082 421.118 699.325 421.073L700.856 428.316C700.369 428.468 699.683 428.643 698.8 428.841C697.916 429.055 696.843 429.184 695.578 429.23C693.232 429.321 691.176 429.009 689.409 428.293C687.657 427.577 686.294 426.465 685.319 424.957C684.344 423.449 683.864 421.545 683.879 419.245V385.245ZM721.632 428.75V381.955H740.094C743.628 381.955 746.644 382.587 749.142 383.851C751.656 385.1 753.568 386.875 754.878 389.175C756.203 391.46 756.865 394.149 756.865 397.241C756.865 400.348 756.195 403.022 754.855 405.261C753.514 407.485 751.572 409.191 749.028 410.379C746.5 411.567 743.438 412.161 739.843 412.161H727.481V404.21H738.243C740.132 404.21 741.701 403.951 742.95 403.433C744.199 402.915 745.129 402.138 745.738 401.102C746.362 400.067 746.675 398.779 746.675 397.241C746.675 395.687 746.362 394.377 745.738 393.311C745.129 392.245 744.192 391.437 742.927 390.889C741.678 390.325 740.102 390.043 738.198 390.043H731.526V428.75H721.632ZM746.903 407.455L758.533 428.75H747.612L736.233 407.455H746.903ZM773.682 429.413C771.443 429.413 769.448 429.024 767.696 428.247C765.944 427.455 764.558 426.29 763.537 424.751C762.532 423.198 762.029 421.263 762.029 418.948C762.029 416.998 762.387 415.36 763.103 414.035C763.819 412.71 764.794 411.644 766.028 410.836C767.262 410.029 768.663 409.42 770.232 409.008C771.816 408.597 773.477 408.308 775.213 408.14C777.254 407.927 778.9 407.729 780.149 407.546C781.398 407.348 782.304 407.059 782.868 406.678C783.431 406.297 783.713 405.733 783.713 404.987V404.85C783.713 403.403 783.256 402.283 782.342 401.491C781.444 400.699 780.164 400.303 778.504 400.303C776.752 400.303 775.358 400.691 774.322 401.468C773.286 402.23 772.601 403.189 772.266 404.347L763.263 403.616C763.72 401.483 764.619 399.64 765.959 398.086C767.3 396.517 769.029 395.314 771.146 394.476C773.279 393.623 775.746 393.197 778.549 393.197C780.499 393.197 782.365 393.425 784.147 393.882C785.945 394.339 787.537 395.047 788.923 396.007C790.324 396.967 791.429 398.201 792.236 399.709C793.043 401.201 793.447 402.991 793.447 405.078V428.75H784.216V423.883H783.942C783.378 424.98 782.624 425.947 781.68 426.785C780.735 427.608 779.6 428.255 778.275 428.727C776.95 429.184 775.419 429.413 773.682 429.413ZM776.47 422.695C777.902 422.695 779.166 422.413 780.263 421.85C781.36 421.271 782.22 420.494 782.845 419.519C783.469 418.544 783.782 417.44 783.782 416.206V412.481C783.477 412.679 783.058 412.862 782.525 413.03C782.007 413.182 781.421 413.327 780.766 413.464C780.111 413.586 779.456 413.7 778.801 413.807C778.146 413.898 777.552 413.982 777.018 414.058C775.876 414.226 774.878 414.492 774.025 414.858C773.172 415.223 772.509 415.718 772.037 416.343C771.565 416.952 771.329 417.714 771.329 418.628C771.329 419.953 771.809 420.966 772.768 421.667C773.743 422.352 774.977 422.695 776.47 422.695ZM819.666 393.654V400.965H798.531V393.654H819.666ZM803.329 385.245H813.063V417.965C813.063 418.864 813.2 419.565 813.474 420.067C813.748 420.555 814.129 420.897 814.617 421.096C815.119 421.294 815.698 421.393 816.353 421.393C816.81 421.393 817.267 421.354 817.724 421.278C818.181 421.187 818.532 421.118 818.775 421.073L820.306 428.316C819.819 428.468 819.133 428.643 818.25 428.841C817.366 429.055 816.292 429.184 815.028 429.23C812.682 429.321 810.626 429.009 808.859 428.293C807.107 427.577 805.744 426.465 804.769 424.957C803.794 423.449 803.314 421.545 803.329 419.245V385.245ZM826.007 428.75V393.654H835.741V428.75H826.007ZM830.897 389.13C829.45 389.13 828.208 388.65 827.172 387.69C826.152 386.715 825.641 385.55 825.641 384.194C825.641 382.854 826.152 381.704 827.172 380.744C828.208 379.769 829.45 379.281 830.897 379.281C832.344 379.281 833.578 379.769 834.598 380.744C835.634 381.704 836.152 382.854 836.152 384.194C836.152 385.55 835.634 386.715 834.598 387.69C833.578 388.65 832.344 389.13 830.897 389.13ZM859.396 429.435C855.846 429.435 852.777 428.681 850.187 427.173C847.613 425.65 845.625 423.533 844.224 420.821C842.822 418.095 842.122 414.934 842.122 411.339C842.122 407.714 842.822 404.545 844.224 401.834C845.625 399.107 847.613 396.99 850.187 395.482C852.777 393.958 855.846 393.197 859.396 393.197C862.945 393.197 866.007 393.958 868.581 395.482C871.17 396.99 873.166 399.107 874.567 401.834C875.969 404.545 876.67 407.714 876.67 411.339C876.67 414.934 875.969 418.095 874.567 420.821C873.166 423.533 871.17 425.65 868.581 427.173C866.007 428.681 862.945 429.435 859.396 429.435ZM859.441 421.895C861.056 421.895 862.404 421.438 863.486 420.524C864.567 419.595 865.382 418.331 865.93 416.731C866.494 415.132 866.776 413.312 866.776 411.27C866.776 409.229 866.494 407.409 865.93 405.809C865.382 404.21 864.567 402.946 863.486 402.016C862.404 401.087 861.056 400.623 859.441 400.623C857.811 400.623 856.44 401.087 855.328 402.016C854.232 402.946 853.401 404.21 852.838 405.809C852.289 407.409 852.015 409.229 852.015 411.27C852.015 413.312 852.289 415.132 852.838 416.731C853.401 418.331 854.232 419.595 855.328 420.524C856.44 421.438 857.811 421.895 859.441 421.895Z"
            fill="black" />
    </g>
</svg>
    